<svg width="82" height="22" viewBox="0 0 82 22" fill="none" xmlns="http://www.w3.org/2000/svg">
<path d="M13.32 21.75H19.35L13.98 12.72C16.47 11.76 18.24 9.93 18.24 6.72C18.24 1.35 14.01 0 8.37 0H0V21.75H5.13V13.56H8.61L13.32 21.75ZM8.52 4.32C10.95 4.32 12.81 4.77 12.81 6.78C12.81 8.85 10.95 9.24 8.52 9.24H5.13V4.32H8.52Z" fill="black"/>
<path d="M21.6211 21.75H26.7511V12.84H36.9811V8.31H26.7511V4.5H37.6411V0H21.6211V21.75Z" fill="black"/>
<path d="M54.0401 10.86C54.0401 16.62 50.5901 17.43 46.8401 17.43H44.7101V4.32H46.8401C50.5901 4.32 54.0401 5.1 54.0401 10.86ZM39.5801 0V21.75H46.7501C53.8601 21.75 59.4701 19.14 59.4701 10.86C59.4701 2.61 53.8601 0 46.7501 0H39.5801Z" fill="black"/>
<path d="M82.0001 21.75V0H77.0501V15L68.3201 0H62.0801V21.75H67.0301V6.75L75.7601 21.75H82.0001Z" fill="black"/>
</svg>
