<svg width="192" height="51" viewBox="0 0 192 51" fill="none" xmlns="http://www.w3.org/2000/svg">
<path d="M31.08 50.75H45.15L32.62 29.68C38.43 27.44 42.56 23.17 42.56 15.68C42.56 3.15 32.69 0 19.53 0H0V50.75H11.97V31.64H20.09L31.08 50.75ZM19.88 10.08C25.55 10.08 29.89 11.13 29.89 15.82C29.89 20.65 25.55 21.56 19.88 21.56H11.97V10.08H19.88Z" fill="white"/>
<path d="M50.4492 50.75H62.4192V29.96H86.2892V19.39H62.4192V10.5H87.8292V0H50.4492V50.75Z" fill="white"/>
<path d="M126.094 25.34C126.094 38.78 118.044 40.67 109.294 40.67H104.324V10.08H109.294C118.044 10.08 126.094 11.9 126.094 25.34ZM92.3535 0V50.75H109.084C125.674 50.75 138.764 44.66 138.764 25.34C138.764 6.09 125.674 0 109.084 0H92.3535Z" fill="white"/>
<path d="M191.334 50.75V0H179.784V35L159.414 0H144.854V50.75H156.404V15.75L176.774 50.75H191.334Z" fill="white"/>
</svg>
