<svg width="1273" height="328" viewBox="0 0 1273 328" fill="none" xmlns="http://www.w3.org/2000/svg">
<path d="M52.512 1.40005H35.52L26.112 49.4961L16.608 1.40005H0L15.936 71.0001H33.504L43.968 21.944L54.528 71.0001H72.192L87.936 1.40005H71.52L62.784 49.688L52.512 1.40005Z" fill="black"/>
<path d="M127.079 54.7761C125.255 57.8481 121.511 59.9601 115.463 59.9601C109.703 59.9601 104.039 56.6001 103.559 49.2081H141.863C142.919 30.7761 132.455 17.816 115.271 17.816C100.199 17.816 87.6233 28.3761 87.6233 44.8881C87.6233 62.0721 99.1432 72.2481 115.943 72.2481C126.215 72.2481 137.063 66.9681 141.671 54.7761H127.079ZM115.271 29.912C121.319 29.912 125.831 33.08 126.119 39.608H103.751C104.615 32.792 109.607 29.912 115.271 29.912Z" fill="black"/>
<path d="M202.436 38.744C182.372 40.28 168.068 44.4081 168.068 57.0801C168.068 66.4881 176.132 72.2481 185.924 72.2481C193.316 72.2481 199.46 70.2321 203.299 64.7601L203.492 71.0001H219.044C218.275 67.8321 217.892 61.6881 217.892 56.0241V50.648L218.083 39.416C218.371 23.768 209.924 17.7201 195.044 17.7201C179.684 17.7201 170.467 26.3601 169.699 36.0561H184.484C185.156 31.0641 188.612 28.4721 193.7 28.4721C199.46 28.4721 202.436 30.584 202.436 36.7281V38.744ZM202.82 49.3041C202.82 58.8081 198.02 61.4961 191.684 61.4961C187.555 61.4961 184.387 59.2881 184.387 55.9281C184.387 50.2641 191.78 49.1121 202.82 48.0561V49.3041Z" fill="black"/>
<path d="M259.909 19.0641C259.525 18.968 259.141 18.968 258.661 18.968H257.509C250.117 19.256 245.797 23 243.397 29.144V19.352H228.133V71.0001H243.973V45.0801C243.973 37.0161 247.909 34.232 255.589 34.232C257.029 34.232 258.085 34.2321 259.909 34.5201V19.0641Z" fill="black"/>
<path d="M303.048 54.7761C301.224 57.8481 297.48 59.9601 291.432 59.9601C285.672 59.9601 280.008 56.6001 279.528 49.2081H317.832C318.888 30.7761 308.424 17.816 291.24 17.816C276.168 17.816 263.592 28.3761 263.592 44.8881C263.592 62.0721 275.112 72.2481 291.912 72.2481C302.184 72.2481 313.032 66.9681 317.64 54.7761H303.048ZM291.24 29.912C297.288 29.912 301.8 33.08 302.088 39.608H279.72C280.584 32.792 285.576 29.912 291.24 29.912Z" fill="black"/>
<path d="M378.404 38.744C358.34 40.28 344.036 44.4081 344.036 57.0801C344.036 66.4881 352.1 72.2481 361.892 72.2481C369.284 72.2481 375.428 70.2321 379.268 64.7601L379.46 71.0001H395.012C394.244 67.8321 393.86 61.6881 393.86 56.0241V50.648L394.052 39.416C394.34 23.768 385.892 17.7201 371.012 17.7201C355.652 17.7201 346.436 26.3601 345.668 36.0561H360.452C361.124 31.0641 364.58 28.4721 369.668 28.4721C375.428 28.4721 378.404 30.584 378.404 36.7281V38.744ZM378.788 49.3041C378.788 58.8081 373.988 61.4961 367.652 61.4961C363.524 61.4961 360.356 59.2881 360.356 55.9281C360.356 50.2641 367.748 49.1121 378.788 48.0561V49.3041Z" fill="black"/>
<path d="M451.03 60.5361C444.886 60.5361 439.798 57.6561 438.358 49.5921H423.095C425.398 64.4721 436.919 72.2481 451.223 72.2481C466.487 72.2481 479.638 63.8961 479.638 47.9601C479.638 31.8321 467.734 23.672 455.159 23.672C450.263 23.672 444.695 25.016 441.335 27.3201L442.966 14.2641H476.375V1.40005H429.815L424.918 40.856L439.414 42.2961C441.91 37.6881 445.846 35.384 451.319 35.384C457.463 35.384 463.319 39.5121 463.319 48.0561C463.319 56.1201 458.038 60.5361 451.03 60.5361Z" fill="black"/>
<path d="M517.743 72.2481C537.231 72.2481 547.503 58.3281 547.503 36.0561C547.503 13.8801 537.231 0.248047 517.743 0.248047C498.159 0.248047 487.887 13.8801 487.887 36.0561C487.887 58.3281 498.159 72.2481 517.743 72.2481ZM517.743 60.5361C509.583 60.5361 504.111 52.9521 504.111 36.0561C504.111 19.2561 509.583 11.9601 517.743 11.9601C525.807 11.9601 531.279 19.2561 531.279 36.0561C531.279 52.9521 525.807 60.5361 517.743 60.5361Z" fill="black"/>
<path d="M584.734 71.0001V1.40005H572.734C569.662 8.98405 564.862 12.3441 553.15 12.632V24.248H568.99V71.0001H584.734Z" fill="black"/>
<path d="M594.338 44.6001C594.338 63.1281 602.113 79.2561 608.065 87.8001H623.138C616.226 76.7601 610.37 60.7281 610.37 44.6001C610.37 28.1841 616.13 12.536 623.138 1.40005H608.065C602.113 9.94405 594.338 26.0721 594.338 44.6001Z" fill="black"/>
<path d="M651.398 17.816C635.75 17.816 624.998 28.4721 624.998 44.8881C624.998 61.3041 634.406 72.2481 651.398 72.2481C661.766 72.2481 674.15 67.3521 677.702 51.9921H662.918C661.766 56.8881 658.214 59.9601 652.358 59.9601C646.694 59.9601 641.126 56.216 641.126 44.984C641.126 33.944 646.694 30.104 652.358 30.104C657.062 30.104 660.806 32.2161 662.246 38.2641H677.03C673.958 22.7121 662.15 17.816 651.398 17.816Z" fill="black"/>
<path d="M707.626 44.6001C707.626 26.1681 699.658 9.84805 693.802 1.40005H678.826C685.738 12.4401 691.498 28.376 691.498 44.6001C691.498 60.7281 685.738 76.7601 678.826 87.8001H693.802C699.658 79.3521 707.626 63.0321 707.626 44.6001Z" fill="black"/>
<path d="M740.302 60.5361C734.159 60.5361 728.399 57.3681 727.343 49.2081H711.599C713.422 65.3361 726.191 72.2481 740.015 72.2481C754.607 72.2481 767.662 65.048 767.662 50.744C767.662 44.312 763.727 37.016 756.815 34.232C761.711 31.448 766.51 25.688 766.51 18.392C766.51 5.72005 753.359 0.248047 741.07 0.248047C727.055 0.248047 713.999 6.39205 712.463 21.656H728.11C729.167 14.264 734.35 11.9601 740.302 11.9601C745.487 11.9601 750.575 14.6481 750.575 19.736C750.575 25.88 745.102 28.8561 735.982 28.8561H731.854V41.912H736.463C745.391 41.912 751.438 44.696 751.438 50.84C751.438 57.272 747.214 60.5361 740.302 60.5361Z" fill="black"/>
<path d="M813.598 19.352H797.758V71.0001H813.598V44.5041C813.598 34.9041 816.382 30.4881 823.198 30.4881C830.878 30.4881 831.166 36.5361 831.166 43.9281V71.0001H847.006V39.9921C847.006 25.9761 842.878 18.2 829.63 18.2C821.47 18.2 815.902 22.328 813.598 26.1681V19.352Z" fill="black"/>
<path d="M881.671 30.104C887.911 30.104 892.903 33.944 892.903 44.984C892.903 55.832 888.103 59.9601 881.671 59.9601C875.239 59.9601 870.439 55.832 870.439 44.984C870.439 33.944 875.431 30.104 881.671 30.104ZM881.671 17.816C867.367 17.816 854.311 26.264 854.311 44.984C854.311 63.704 867.367 72.2481 881.671 72.2481C895.975 72.2481 909.031 63.704 909.031 44.984C909.031 26.264 895.975 17.816 881.671 17.816Z" fill="black"/>
<path d="M933.129 19.352H917.289V71.0001H933.129V44.5041C933.129 34.9041 935.913 30.4881 942.729 30.4881C950.409 30.4881 950.697 36.5361 950.697 43.9281V71.0001H966.537V39.9921C966.537 25.9761 962.409 18.2 949.161 18.2C941.001 18.2 935.433 22.328 933.129 26.1681V19.352Z" fill="black"/>
<path d="M1009.27 52.1841V38.84H975.378V52.1841H1009.27Z" fill="black"/>
<path d="M1034.94 19.352H1019.1V87.8001H1034.94V64.0881C1038.3 69.7521 1045.21 72.2481 1050.78 72.2481C1064.13 72.2481 1073.53 62.0721 1073.53 45.176C1073.53 28.28 1064.13 18.2 1050.78 18.2C1045.21 18.2 1038.3 20.696 1034.94 26.36V19.352ZM1045.6 30.4881C1051.84 30.4881 1057.12 35.576 1057.12 45.176C1057.12 54.776 1051.84 59.9601 1045.6 59.9601C1039.36 59.9601 1034.17 55.8321 1034.17 45.176C1034.17 34.5201 1039.36 30.4881 1045.6 30.4881Z" fill="black"/>
<path d="M1113.31 19.0641C1112.93 18.968 1112.55 18.968 1112.07 18.968H1110.92C1103.52 19.256 1099.2 23 1096.8 29.144V19.352H1081.54V71.0001H1097.38V45.0801C1097.38 37.0161 1101.31 34.232 1108.99 34.232C1110.43 34.232 1111.49 34.2321 1113.31 34.5201V19.0641Z" fill="black"/>
<path d="M1144.36 30.104C1150.6 30.104 1155.59 33.944 1155.59 44.984C1155.59 55.832 1150.79 59.9601 1144.36 59.9601C1137.93 59.9601 1133.13 55.832 1133.13 44.984C1133.13 33.944 1138.12 30.104 1144.36 30.104ZM1144.36 17.816C1130.05 17.816 1117 26.264 1117 44.984C1117 63.704 1130.05 72.2481 1144.36 72.2481C1158.66 72.2481 1171.72 63.704 1171.72 44.984C1171.72 26.264 1158.66 17.816 1144.36 17.816Z" fill="black"/>
<path d="M1181.51 19.352H1174.5V30.584H1181.51V71.0001H1197.35V30.584H1208.78V19.352H1197.35V16.7601C1197.35 12.8241 1198.6 12.536 1204.26 12.536H1208.78V1.40005H1200.71C1186.89 1.40005 1181.51 3.89605 1181.51 16.088V19.352Z" fill="black"/>
<path d="M1215.51 19.352V71.0001H1231.44V19.352H1215.51ZM1215.51 1.40005V14.072H1231.35V1.40005H1215.51Z" fill="black"/>
<path d="M1245.29 19.352H1237.12V30.584H1245.29V56.5041C1245.29 68.5041 1249.61 71.0001 1262.37 71.0001H1272.45V59.576H1267.94C1262.66 59.576 1261.12 58.6161 1261.12 53.7201V30.584H1272.45V19.352H1261.12V5.24005H1245.29V19.352Z" fill="black"/>
<path d="M8.16 139.352H0V150.584H8.16V176.504C8.16 188.504 12.48 191 25.248 191H35.328V179.576H30.816C25.536 179.576 24 178.616 24 173.72V150.584H35.328V139.352H24V125.24H8.16V139.352Z" fill="black"/>
<path d="M59.5665 121.4H43.7265V191H59.5665V164.504C59.5665 154.904 62.4465 150.488 69.2625 150.488C76.9425 150.488 77.1345 156.536 77.1345 163.928V191H92.9745V159.992C92.9745 145.976 88.8465 138.2 75.5985 138.2C67.4385 138.2 61.8705 142.328 59.5665 146.168V121.4Z" fill="black"/>
<path d="M134.936 158.744C114.871 160.28 100.567 164.408 100.567 177.08C100.567 186.488 108.632 192.248 118.424 192.248C125.815 192.248 131.96 190.232 135.799 184.76L135.992 191H151.544C150.775 187.832 150.392 181.688 150.392 176.024V170.648L150.583 159.416C150.871 143.768 142.424 137.72 127.544 137.72C112.184 137.72 102.967 146.36 102.2 156.056H116.983C117.655 151.064 121.112 148.472 126.2 148.472C131.96 148.472 134.936 150.584 134.936 156.728V158.744ZM135.32 169.304C135.32 178.808 130.52 181.496 124.184 181.496C120.056 181.496 116.887 179.288 116.887 175.928C116.887 170.264 124.28 169.112 135.32 168.056V169.304Z" fill="black"/>
<path d="M163.129 139.352H154.969V150.584H163.129V176.504C163.129 188.504 167.449 191 180.217 191H190.297V179.576H185.785C180.505 179.576 178.969 178.616 178.969 173.72V150.584H190.297V139.352H178.969V125.24H163.129V139.352Z" fill="black"/>
<path d="M242.648 137.816C227 137.816 216.248 148.472 216.248 164.888C216.248 181.304 225.656 192.248 242.648 192.248C253.016 192.248 265.4 187.352 268.952 171.992H254.168C253.016 176.888 249.464 179.96 243.608 179.96C237.944 179.96 232.376 176.216 232.376 164.984C232.376 153.944 237.944 150.104 243.608 150.104C248.312 150.104 252.056 152.216 253.496 158.264H268.28C265.208 142.712 253.4 137.816 242.648 137.816Z" fill="black"/>
<path d="M308.284 139.064C307.9 138.968 307.516 138.968 307.036 138.968H305.884C298.492 139.256 294.172 143 291.772 149.144V139.352H276.508V191H292.348V165.08C292.348 157.016 296.284 154.232 303.964 154.232C305.404 154.232 306.46 154.232 308.284 154.52V139.064Z" fill="black"/>
<path d="M351.423 174.776C349.599 177.848 345.855 179.96 339.807 179.96C334.047 179.96 328.383 176.6 327.903 169.208H366.207C367.263 150.776 356.799 137.816 339.615 137.816C324.543 137.816 311.967 148.376 311.967 164.888C311.967 182.072 323.487 192.248 340.287 192.248C350.559 192.248 361.407 186.968 366.015 174.776H351.423ZM339.615 149.912C345.663 149.912 350.175 153.08 350.463 159.608H328.095C328.959 152.792 333.951 149.912 339.615 149.912Z" fill="black"/>
<path d="M406.154 158.744C386.09 160.28 371.786 164.408 371.786 177.08C371.786 186.488 379.85 192.248 389.642 192.248C397.034 192.248 403.178 190.232 407.018 184.76L407.21 191H422.762C421.994 187.832 421.61 181.688 421.61 176.024V170.648L421.802 159.416C422.09 143.768 413.642 137.72 398.762 137.72C383.402 137.72 374.186 146.36 373.418 156.056H388.202C388.874 151.064 392.33 148.472 397.418 148.472C403.178 148.472 406.154 150.584 406.154 156.728V158.744ZM406.538 169.304C406.538 178.808 401.738 181.496 395.402 181.496C391.274 181.496 388.106 179.288 388.106 175.928C388.106 170.264 395.498 169.112 406.538 168.056V169.304Z" fill="black"/>
<path d="M434.348 139.352H426.188V150.584H434.348V176.504C434.348 188.504 438.667 191 451.435 191H461.516V179.576H457.004C451.724 179.576 450.188 178.616 450.188 173.72V150.584H461.516V139.352H450.188V125.24H434.348V139.352Z" fill="black"/>
<path d="M506.298 174.776C504.474 177.848 500.73 179.96 494.682 179.96C488.922 179.96 483.258 176.6 482.778 169.208H521.082C522.138 150.776 511.674 137.816 494.49 137.816C479.418 137.816 466.842 148.376 466.842 164.888C466.842 182.072 478.362 192.248 495.162 192.248C505.434 192.248 516.282 186.968 520.89 174.776H506.298ZM494.49 149.912C500.538 149.912 505.05 153.08 505.338 159.608H482.97C483.834 152.792 488.826 149.912 494.49 149.912Z" fill="black"/>
<path d="M576.005 154.52C573.989 142.712 563.333 138.008 551.525 138.008C538.757 138.008 527.909 143.672 527.909 153.944C527.909 163.16 534.725 168.152 544.709 169.784L553.925 171.32C559.973 172.376 561.989 173.816 561.989 176.12C561.989 179.192 558.053 180.728 552.389 180.728C546.917 180.728 542.981 179.192 541.541 174.2H526.853C528.677 186.392 538.469 192.248 552.197 192.248C566.501 192.248 577.157 186.392 577.157 174.776C577.157 165.656 571.205 162.008 558.821 159.704L549.221 157.976C544.709 157.112 542.885 155.768 542.885 153.368C542.885 150.776 545.669 149.528 551.141 149.528C556.133 149.528 560.165 150.68 561.221 154.52H576.005Z" fill="black"/>
<path d="M621.785 121.4H605.945V191H621.785V164.504C621.785 154.904 624.665 150.488 631.481 150.488C639.161 150.488 639.353 156.536 639.353 163.928V191H655.193V159.992C655.193 145.976 651.065 138.2 637.817 138.2C629.657 138.2 624.089 142.328 621.785 146.168V121.4Z" fill="black"/>
<path d="M697.154 158.744C677.09 160.28 662.786 164.408 662.786 177.08C662.786 186.488 670.85 192.248 680.642 192.248C688.034 192.248 694.178 190.232 698.018 184.76L698.21 191H713.762C712.994 187.832 712.61 181.688 712.61 176.024V170.648L712.802 159.416C713.09 143.768 704.642 137.72 689.762 137.72C674.402 137.72 665.186 146.36 664.418 156.056H679.202C679.874 151.064 683.33 148.472 688.418 148.472C694.178 148.472 697.154 150.584 697.154 156.728V158.744ZM697.538 169.304C697.538 178.808 692.738 181.496 686.402 181.496C682.274 181.496 679.106 179.288 679.106 175.928C679.106 170.264 686.498 169.112 697.538 168.056V169.304Z" fill="black"/>
<path d="M746.18 137.816C730.531 137.816 719.779 148.472 719.779 164.888C719.779 181.304 729.188 192.248 746.18 192.248C756.547 192.248 768.932 187.352 772.484 171.992H757.7C756.548 176.888 752.996 179.96 747.14 179.96C741.476 179.96 735.907 176.216 735.907 164.984C735.907 153.944 741.476 150.104 747.14 150.104C751.844 150.104 755.588 152.216 757.028 158.264H771.812C768.74 142.712 756.932 137.816 746.18 137.816Z" fill="black"/>
<path d="M780.039 121.4V191H795.879V178.04L802.791 170.648L814.983 191H833.511L813.543 159.128L831.975 139.352H813.255L795.879 159.032V121.4H780.039Z" fill="black"/>
<path d="M869.185 158.744C849.121 160.28 834.818 164.408 834.818 177.08C834.818 186.488 842.882 192.248 852.674 192.248C860.066 192.248 866.209 190.232 870.049 184.76L870.242 191H885.794C885.026 187.832 884.641 181.688 884.641 176.024V170.648L884.833 159.416C885.122 143.768 876.674 137.72 861.794 137.72C846.434 137.72 837.218 146.36 836.45 156.056H851.234C851.906 151.064 855.362 148.472 860.45 148.472C866.21 148.472 869.185 150.584 869.185 156.728V158.744ZM869.57 169.304C869.57 178.808 864.769 181.496 858.433 181.496C854.305 181.496 851.138 179.288 851.138 175.928C851.138 170.264 858.53 169.112 869.57 168.056V169.304Z" fill="black"/>
<path d="M897.379 139.352H889.219V150.584H897.379V176.504C897.379 188.504 901.699 191 914.467 191H924.547V179.576H920.035C914.755 179.576 913.219 178.616 913.219 173.72V150.584H924.547V139.352H913.219V125.24H897.379V139.352Z" fill="black"/>
<path d="M948.785 121.4H932.945V191H948.785V164.504C948.785 154.904 951.665 150.488 958.481 150.488C966.161 150.488 966.353 156.536 966.353 163.928V191H982.193V159.992C982.193 145.976 978.065 138.2 964.817 138.2C956.657 138.2 951.089 142.328 948.785 146.168V121.4Z" fill="black"/>
<path d="M1016.86 150.104C1023.1 150.104 1028.09 153.944 1028.09 164.984C1028.09 175.832 1023.29 179.96 1016.86 179.96C1010.43 179.96 1005.63 175.832 1005.63 164.984C1005.63 153.944 1010.62 150.104 1016.86 150.104ZM1016.86 137.816C1002.55 137.816 989.498 146.264 989.498 164.984C989.498 183.704 1002.55 192.248 1016.86 192.248C1031.16 192.248 1044.22 183.704 1044.22 164.984C1044.22 146.264 1031.16 137.816 1016.86 137.816Z" fill="black"/>
<path d="M1068.32 139.352H1052.48V191H1068.32V164.504C1068.32 154.904 1071.1 150.488 1077.92 150.488C1085.6 150.488 1085.88 156.536 1085.88 163.928V191H1101.72V159.992C1101.72 145.976 1097.6 138.2 1084.35 138.2C1076.19 138.2 1070.62 142.328 1068.32 146.168V139.352Z" fill="black"/>
<path d="M29.952 270.104C36.192 270.104 41.184 273.944 41.184 284.984C41.184 295.832 36.384 299.96 29.952 299.96C23.52 299.96 18.72 295.832 18.72 284.984C18.72 273.944 23.712 270.104 29.952 270.104ZM29.952 257.816C15.648 257.816 2.592 266.264 2.592 284.984C2.592 303.704 15.648 312.248 29.952 312.248C44.256 312.248 57.312 303.704 57.312 284.984C57.312 266.264 44.256 257.816 29.952 257.816Z" fill="black"/>
<path d="M81.4102 259.352H65.5703V327.8H81.4102V304.088C84.7702 309.752 91.6823 312.248 97.2503 312.248C110.594 312.248 120.002 302.072 120.002 285.176C120.002 268.28 110.594 258.2 97.2503 258.2C91.6823 258.2 84.7702 260.696 81.4102 266.36V259.352ZM92.0663 270.488C98.3063 270.488 103.586 275.576 103.586 285.176C103.586 294.776 98.3063 299.96 92.0663 299.96C85.8263 299.96 80.6423 295.832 80.6423 285.176C80.6423 274.52 85.8263 270.488 92.0663 270.488Z" fill="black"/>
<path d="M143.848 259.352H128.008V327.8H143.848V304.088C147.208 309.752 154.12 312.248 159.688 312.248C173.032 312.248 182.44 302.072 182.44 285.176C182.44 268.28 173.032 258.2 159.688 258.2C154.12 258.2 147.208 260.696 143.848 266.36V259.352ZM154.504 270.488C160.744 270.488 166.024 275.576 166.024 285.176C166.024 294.776 160.744 299.96 154.504 299.96C148.264 299.96 143.08 295.832 143.08 285.176C143.08 274.52 148.264 270.488 154.504 270.488Z" fill="black"/>
<path d="M215.483 270.104C221.723 270.104 226.715 273.944 226.715 284.984C226.715 295.832 221.915 299.96 215.483 299.96C209.051 299.96 204.251 295.832 204.251 284.984C204.251 273.944 209.243 270.104 215.483 270.104ZM215.483 257.816C201.179 257.816 188.123 266.264 188.123 284.984C188.123 303.704 201.179 312.248 215.483 312.248C229.787 312.248 242.843 303.704 242.843 284.984C242.843 266.264 229.787 257.816 215.483 257.816Z" fill="black"/>
<path d="M282.878 259.064C282.493 258.968 282.109 258.968 281.629 258.968H280.478C273.086 259.256 268.766 263 266.366 269.144V259.352H251.102V311H266.941V285.08C266.941 277.016 270.878 274.232 278.557 274.232C279.997 274.232 281.053 274.232 282.878 274.52V259.064Z" fill="black"/>
<path d="M292.129 259.352H283.969V270.584H292.129V296.504C292.129 308.504 296.449 311 309.217 311H319.297V299.576H314.785C309.505 299.576 307.969 298.616 307.969 293.72V270.584H319.297V259.352H307.969V245.24H292.129V259.352Z" fill="black"/>
<path d="M359.663 311H375.503V259.352H359.663V286.616C359.663 296.216 357.167 299.96 350.351 299.96C342.671 299.96 342.479 293.912 342.479 286.52V259.352H326.639V290.456C326.639 304.472 330.767 312.248 344.495 312.248C352.463 312.248 356.495 308.888 359.663 303.8V311Z" fill="black"/>
<path d="M402.785 259.352H386.945V311H402.785V284.504C402.785 274.904 405.569 270.488 412.385 270.488C420.065 270.488 420.353 276.536 420.353 283.928V311H436.193V279.992C436.193 265.976 432.065 258.2 418.817 258.2C410.657 258.2 405.089 262.328 402.785 266.168V259.352Z" fill="black"/>
<path d="M446.57 259.352V311H462.506V259.352H446.57ZM446.57 241.4V254.072H462.41V241.4H446.57Z" fill="black"/>
<path d="M476.348 259.352H468.188V270.584H476.348V296.504C476.348 308.504 480.667 311 493.435 311H503.516V299.576H499.004C493.724 299.576 492.188 298.616 492.188 293.72V270.584H503.516V259.352H492.188V245.24H476.348V259.352Z" fill="black"/>
<path d="M511.914 259.352V311H527.85V259.352H511.914ZM511.914 241.4V254.072H527.754V241.4H511.914Z" fill="black"/>
<path d="M575.579 294.776C573.755 297.848 570.011 299.96 563.963 299.96C558.203 299.96 552.539 296.6 552.059 289.208H590.363C591.419 270.776 580.955 257.816 563.771 257.816C548.699 257.816 536.123 268.376 536.123 284.888C536.123 302.072 547.643 312.248 564.443 312.248C574.715 312.248 585.563 306.968 590.171 294.776H575.579ZM563.771 269.912C569.819 269.912 574.331 273.08 574.619 279.608H552.251C553.115 272.792 558.107 269.912 563.771 269.912Z" fill="black"/>
<path d="M645.286 274.52C643.271 262.712 632.615 258.008 620.807 258.008C608.039 258.008 597.19 263.672 597.19 273.944C597.19 283.16 604.006 288.152 613.99 289.784L623.206 291.32C629.254 292.376 631.271 293.816 631.271 296.12C631.271 299.192 627.334 300.728 621.67 300.728C616.198 300.728 612.263 299.192 610.823 294.2H596.135C597.958 306.392 607.75 312.248 621.479 312.248C635.783 312.248 646.438 306.392 646.438 294.776C646.438 285.656 640.486 282.008 628.102 279.704L618.503 277.976C613.99 277.112 612.167 275.768 612.167 273.368C612.167 270.776 614.951 269.528 620.422 269.528C625.414 269.528 629.446 270.68 630.503 274.52H645.286Z" fill="black"/>
<path d="M676.763 259.352H669.755V270.584H676.763V311H692.602V270.584H704.026V259.352H692.602V256.76C692.602 252.824 693.851 252.536 699.515 252.536H704.026V241.4H695.963C682.139 241.4 676.763 243.896 676.763 256.088V259.352Z" fill="black"/>
<path d="M734.108 270.104C740.348 270.104 745.34 273.944 745.34 284.984C745.34 295.832 740.54 299.96 734.108 299.96C727.676 299.96 722.876 295.832 722.876 284.984C722.876 273.944 727.868 270.104 734.108 270.104ZM734.108 257.816C719.804 257.816 706.748 266.264 706.748 284.984C706.748 303.704 719.804 312.248 734.108 312.248C748.412 312.248 761.468 303.704 761.468 284.984C761.468 266.264 748.412 257.816 734.108 257.816Z" fill="black"/>
<path d="M801.503 259.064C801.119 258.968 800.734 258.968 800.255 258.968H799.102C791.71 259.256 787.391 263 784.99 269.144V259.352H769.727V311H785.567V285.08C785.567 277.016 789.503 274.232 797.182 274.232C798.622 274.232 799.679 274.232 801.503 274.52V259.064Z" fill="black"/>
<path d="M834.547 327.8C848.083 327.8 851.827 324.152 857.011 311L877.267 259.352H860.275L850.099 291.704L840.595 259.352H823.219L842.515 310.712L842.035 312.056C840.499 315.896 839.155 316.376 832.627 316.376H829.459V327.8H834.547Z" fill="black"/>
<path d="M905.39 270.104C911.63 270.104 916.622 273.944 916.622 284.984C916.622 295.832 911.822 299.96 905.39 299.96C898.958 299.96 894.157 295.832 894.157 284.984C894.157 273.944 899.15 270.104 905.39 270.104ZM905.39 257.816C891.086 257.816 878.029 266.264 878.029 284.984C878.029 303.704 891.086 312.248 905.39 312.248C919.694 312.248 932.75 303.704 932.75 284.984C932.75 266.264 919.694 257.816 905.39 257.816Z" fill="black"/>
<path d="M972.976 311H988.816V259.352H972.976V286.616C972.976 296.216 970.48 299.96 963.664 299.96C955.984 299.96 955.792 293.912 955.792 286.52V259.352H939.952V290.456C939.952 304.472 944.08 312.248 957.808 312.248C965.776 312.248 969.808 308.888 972.976 303.8V311Z" fill="black"/>
<path d="M1002.75 259.352H994.594V270.584H1002.75V296.504C1002.75 308.504 1007.07 311 1019.84 311H1029.92V299.576H1025.41C1020.13 299.576 1018.59 298.616 1018.59 293.72V270.584H1029.92V259.352H1018.59V245.24H1002.75V259.352Z" fill="black"/>
<path d="M1054.16 241.4H1038.32V311H1054.16V284.504C1054.16 274.904 1057.04 270.488 1063.86 270.488C1071.54 270.488 1071.73 276.536 1071.73 283.928V311H1087.57V279.992C1087.57 265.976 1083.44 258.2 1070.19 258.2C1062.03 258.2 1056.46 262.328 1054.16 266.168V241.4Z" fill="black"/>
<path d="M1115.03 311V293.912H1097.17V311H1115.03Z" fill="black"/>
</svg>
